<mxfile host="app.diagrams.net" modified="2023-11-13T12:00:08.492Z" agent="Mozilla/5.0 (Windows NT 10.0; Win64; x64; rv:109.0) Gecko/20100101 Firefox/119.0" etag="sqIq1sVDXB453yF97kmt" version="22.1.0" type="device">
  <diagram name="Page-1" id="J5qGnkzKn2TY44U7LDtr">
    <mxGraphModel dx="823" dy="519" grid="1" gridSize="10" guides="1" tooltips="1" connect="1" arrows="1" fold="1" page="1" pageScale="1" pageWidth="850" pageHeight="1100" math="0" shadow="0">
      <root>
        <mxCell id="0" />
        <mxCell id="1" parent="0" />
        <mxCell id="cQ4zJCqIh2k-MCwo7_nI-1" value="" style="rounded=0;whiteSpace=wrap;html=1;fillColor=none;fontStyle=0" vertex="1" parent="1">
          <mxGeometry x="50" y="10" width="660" height="310" as="geometry" />
        </mxCell>
        <mxCell id="cQ4zJCqIh2k-MCwo7_nI-2" value="&lt;span&gt;AN3&lt;/span&gt;" style="endArrow=classic;html=1;labelPosition=left;verticalLabelPosition=top;align=right;verticalAlign=bottom;fontStyle=0" edge="1" parent="1">
          <mxGeometry width="50" height="50" relative="1" as="geometry">
            <mxPoint x="710" y="20" as="sourcePoint" />
            <mxPoint x="790" y="20" as="targetPoint" />
          </mxGeometry>
        </mxCell>
        <mxCell id="cQ4zJCqIh2k-MCwo7_nI-3" value="&lt;span&gt;AN2&lt;br&gt;&lt;/span&gt;" style="endArrow=classic;html=1;labelPosition=left;verticalLabelPosition=top;align=right;verticalAlign=bottom;fontStyle=0" edge="1" parent="1">
          <mxGeometry width="50" height="50" relative="1" as="geometry">
            <mxPoint x="710.0000000000001" y="39.999999999999886" as="sourcePoint" />
            <mxPoint x="790" y="39.999999999999886" as="targetPoint" />
          </mxGeometry>
        </mxCell>
        <mxCell id="cQ4zJCqIh2k-MCwo7_nI-4" value="&lt;span&gt;AN1&lt;/span&gt;" style="endArrow=classic;html=1;labelPosition=left;verticalLabelPosition=top;align=right;verticalAlign=bottom;fontStyle=0" edge="1" parent="1">
          <mxGeometry width="50" height="50" relative="1" as="geometry">
            <mxPoint x="710.0000000000001" y="59.999999999999886" as="sourcePoint" />
            <mxPoint x="790" y="59.999999999999886" as="targetPoint" />
          </mxGeometry>
        </mxCell>
        <mxCell id="cQ4zJCqIh2k-MCwo7_nI-5" value="&lt;span&gt;AN0&lt;/span&gt;" style="endArrow=classic;html=1;labelPosition=left;verticalLabelPosition=top;align=right;verticalAlign=bottom;fontStyle=0" edge="1" parent="1">
          <mxGeometry width="50" height="50" relative="1" as="geometry">
            <mxPoint x="710.0000000000001" y="79.99999999999989" as="sourcePoint" />
            <mxPoint x="790" y="79.99999999999989" as="targetPoint" />
          </mxGeometry>
        </mxCell>
        <mxCell id="cQ4zJCqIh2k-MCwo7_nI-6" value="&lt;span&gt;Clock&lt;/span&gt;" style="endArrow=classic;html=1;labelPosition=left;verticalLabelPosition=top;align=right;verticalAlign=bottom;fontStyle=0" edge="1" parent="1">
          <mxGeometry width="50" height="50" relative="1" as="geometry">
            <mxPoint x="10" y="180" as="sourcePoint" />
            <mxPoint x="50" y="180" as="targetPoint" />
          </mxGeometry>
        </mxCell>
        <mxCell id="cQ4zJCqIh2k-MCwo7_nI-7" value="&lt;span&gt;Reset&lt;/span&gt;" style="endArrow=classic;html=1;labelPosition=left;verticalLabelPosition=top;align=right;verticalAlign=bottom;fontStyle=0" edge="1" parent="1">
          <mxGeometry width="50" height="50" relative="1" as="geometry">
            <mxPoint x="10.000000000000114" y="90" as="sourcePoint" />
            <mxPoint x="50" y="90" as="targetPoint" />
          </mxGeometry>
        </mxCell>
        <mxCell id="cQ4zJCqIh2k-MCwo7_nI-8" value="&lt;span&gt;A&lt;/span&gt;" style="endArrow=classic;html=1;labelPosition=left;verticalLabelPosition=top;align=right;verticalAlign=bottom;fontStyle=0" edge="1" parent="1">
          <mxGeometry width="50" height="50" relative="1" as="geometry">
            <mxPoint x="710" y="110" as="sourcePoint" />
            <mxPoint x="790" y="110" as="targetPoint" />
          </mxGeometry>
        </mxCell>
        <mxCell id="cQ4zJCqIh2k-MCwo7_nI-9" value="&lt;span&gt;B&lt;br&gt;&lt;/span&gt;" style="endArrow=classic;html=1;labelPosition=left;verticalLabelPosition=top;align=right;verticalAlign=bottom;fontStyle=0" edge="1" parent="1">
          <mxGeometry width="50" height="50" relative="1" as="geometry">
            <mxPoint x="710" y="129.9999999999999" as="sourcePoint" />
            <mxPoint x="790" y="129.9999999999999" as="targetPoint" />
          </mxGeometry>
        </mxCell>
        <mxCell id="cQ4zJCqIh2k-MCwo7_nI-10" value="&lt;span&gt;C&lt;/span&gt;" style="endArrow=classic;html=1;labelPosition=left;verticalLabelPosition=top;align=right;verticalAlign=bottom;fontStyle=0" edge="1" parent="1">
          <mxGeometry width="50" height="50" relative="1" as="geometry">
            <mxPoint x="710" y="149.9999999999999" as="sourcePoint" />
            <mxPoint x="790" y="149.9999999999999" as="targetPoint" />
          </mxGeometry>
        </mxCell>
        <mxCell id="cQ4zJCqIh2k-MCwo7_nI-11" value="&lt;span&gt;D&lt;/span&gt;" style="endArrow=classic;html=1;labelPosition=left;verticalLabelPosition=top;align=right;verticalAlign=bottom;fontStyle=0" edge="1" parent="1">
          <mxGeometry width="50" height="50" relative="1" as="geometry">
            <mxPoint x="710" y="169.9999999999999" as="sourcePoint" />
            <mxPoint x="790" y="169.9999999999999" as="targetPoint" />
          </mxGeometry>
        </mxCell>
        <mxCell id="cQ4zJCqIh2k-MCwo7_nI-12" value="&lt;span&gt;E&lt;/span&gt;" style="endArrow=classic;html=1;labelPosition=left;verticalLabelPosition=top;align=right;verticalAlign=bottom;fontStyle=0" edge="1" parent="1">
          <mxGeometry width="50" height="50" relative="1" as="geometry">
            <mxPoint x="710" y="190" as="sourcePoint" />
            <mxPoint x="790" y="190" as="targetPoint" />
          </mxGeometry>
        </mxCell>
        <mxCell id="cQ4zJCqIh2k-MCwo7_nI-13" value="&lt;span&gt;F&lt;br&gt;&lt;/span&gt;" style="endArrow=classic;html=1;labelPosition=left;verticalLabelPosition=top;align=right;verticalAlign=bottom;fontStyle=0" edge="1" parent="1">
          <mxGeometry width="50" height="50" relative="1" as="geometry">
            <mxPoint x="710" y="209.9999999999999" as="sourcePoint" />
            <mxPoint x="790" y="209.9999999999999" as="targetPoint" />
          </mxGeometry>
        </mxCell>
        <mxCell id="cQ4zJCqIh2k-MCwo7_nI-14" value="&lt;span&gt;G&lt;/span&gt;" style="endArrow=classic;html=1;labelPosition=left;verticalLabelPosition=top;align=right;verticalAlign=bottom;fontStyle=0" edge="1" parent="1">
          <mxGeometry width="50" height="50" relative="1" as="geometry">
            <mxPoint x="710" y="229.9999999999999" as="sourcePoint" />
            <mxPoint x="790" y="229.9999999999999" as="targetPoint" />
          </mxGeometry>
        </mxCell>
        <mxCell id="cQ4zJCqIh2k-MCwo7_nI-15" value="&lt;span&gt;DP&lt;/span&gt;" style="endArrow=classic;html=1;labelPosition=left;verticalLabelPosition=top;align=right;verticalAlign=bottom;fontStyle=0" edge="1" parent="1">
          <mxGeometry width="50" height="50" relative="1" as="geometry">
            <mxPoint x="710" y="259.9999999999999" as="sourcePoint" />
            <mxPoint x="790" y="259.9999999999999" as="targetPoint" />
          </mxGeometry>
        </mxCell>
        <mxCell id="cQ4zJCqIh2k-MCwo7_nI-31" value="&lt;span style=&quot;font-size:11.0pt;line-height:107%;&lt;br/&gt;font-family:&amp;quot;Calibri&amp;quot;,sans-serif;mso-ascii-theme-font:minor-latin;mso-fareast-font-family:&lt;br/&gt;Calibri;mso-fareast-theme-font:minor-latin;mso-hansi-theme-font:minor-latin;&lt;br/&gt;mso-bidi-font-family:&amp;quot;Times New Roman&amp;quot;;mso-bidi-theme-font:minor-bidi;&lt;br/&gt;mso-ansi-language:EL;mso-fareast-language:EN-US;mso-bidi-language:AR-SA&quot;&gt;&lt;span&gt;FourDigitLEDdriver&lt;/span&gt;&lt;/span&gt;" style="text;html=1;strokeColor=none;fillColor=none;align=center;verticalAlign=middle;whiteSpace=wrap;rounded=0;fontStyle=1" vertex="1" parent="1">
          <mxGeometry x="570" y="300" width="140" height="20" as="geometry" />
        </mxCell>
        <mxCell id="cQ4zJCqIh2k-MCwo7_nI-33" value="MMCME2" style="rounded=0;whiteSpace=wrap;html=1;fillColor=none;fontStyle=0" vertex="1" parent="1">
          <mxGeometry x="90" y="160" width="80" height="120" as="geometry" />
        </mxCell>
        <mxCell id="cQ4zJCqIh2k-MCwo7_nI-34" value="" style="endArrow=none;html=1;rounded=0;fontStyle=0" edge="1" parent="1">
          <mxGeometry width="50" height="50" relative="1" as="geometry">
            <mxPoint x="170" y="270" as="sourcePoint" />
            <mxPoint x="190" y="270" as="targetPoint" />
          </mxGeometry>
        </mxCell>
        <mxCell id="cQ4zJCqIh2k-MCwo7_nI-35" value="" style="endArrow=none;html=1;rounded=0;fontStyle=0" edge="1" parent="1">
          <mxGeometry width="50" height="50" relative="1" as="geometry">
            <mxPoint x="190" y="300" as="sourcePoint" />
            <mxPoint x="190" y="270" as="targetPoint" />
          </mxGeometry>
        </mxCell>
        <mxCell id="cQ4zJCqIh2k-MCwo7_nI-36" value="clkfb" style="endArrow=none;html=1;rounded=0;labelBackgroundColor=none;labelPosition=center;verticalLabelPosition=bottom;align=center;verticalAlign=top;fontStyle=0" edge="1" parent="1">
          <mxGeometry width="50" height="50" relative="1" as="geometry">
            <mxPoint x="190" y="300" as="sourcePoint" />
            <mxPoint x="70" y="300" as="targetPoint" />
          </mxGeometry>
        </mxCell>
        <mxCell id="cQ4zJCqIh2k-MCwo7_nI-37" value="" style="endArrow=none;html=1;rounded=0;fontStyle=0" edge="1" parent="1">
          <mxGeometry width="50" height="50" relative="1" as="geometry">
            <mxPoint x="70" y="300" as="sourcePoint" />
            <mxPoint x="70" y="270" as="targetPoint" />
          </mxGeometry>
        </mxCell>
        <mxCell id="cQ4zJCqIh2k-MCwo7_nI-38" value="" style="endArrow=classic;html=1;rounded=0;fontStyle=0" edge="1" parent="1">
          <mxGeometry width="50" height="50" relative="1" as="geometry">
            <mxPoint x="70" y="270" as="sourcePoint" />
            <mxPoint x="90" y="271" as="targetPoint" />
          </mxGeometry>
        </mxCell>
        <mxCell id="cQ4zJCqIh2k-MCwo7_nI-39" value="" style="endArrow=classic;html=1;rounded=0;fontStyle=0" edge="1" parent="1">
          <mxGeometry width="50" height="50" relative="1" as="geometry">
            <mxPoint x="40" y="180" as="sourcePoint" />
            <mxPoint x="90" y="180" as="targetPoint" />
          </mxGeometry>
        </mxCell>
        <mxCell id="cQ4zJCqIh2k-MCwo7_nI-40" value="clk_ssd" style="endArrow=none;html=1;rounded=0;labelBackgroundColor=none;labelPosition=center;verticalLabelPosition=top;align=center;verticalAlign=bottom;fontStyle=0" edge="1" parent="1">
          <mxGeometry width="50" height="50" relative="1" as="geometry">
            <mxPoint x="170" y="180" as="sourcePoint" />
            <mxPoint x="220" y="180" as="targetPoint" />
          </mxGeometry>
        </mxCell>
        <mxCell id="cQ4zJCqIh2k-MCwo7_nI-41" value="" style="endArrow=none;html=1;rounded=0;fontStyle=0" edge="1" parent="1">
          <mxGeometry width="50" height="50" relative="1" as="geometry">
            <mxPoint x="220" y="180" as="sourcePoint" />
            <mxPoint x="350" y="180" as="targetPoint" />
          </mxGeometry>
        </mxCell>
        <mxCell id="cQ4zJCqIh2k-MCwo7_nI-44" value="[0]" style="endArrow=classic;html=1;rounded=0;fontStyle=0" edge="1" parent="1">
          <mxGeometry width="50" height="50" relative="1" as="geometry">
            <mxPoint x="610" y="80" as="sourcePoint" />
            <mxPoint x="710" y="80" as="targetPoint" />
          </mxGeometry>
        </mxCell>
        <mxCell id="cQ4zJCqIh2k-MCwo7_nI-45" value="[1]" style="endArrow=classic;html=1;rounded=0;fontStyle=0" edge="1" parent="1">
          <mxGeometry width="50" height="50" relative="1" as="geometry">
            <mxPoint x="630" y="60" as="sourcePoint" />
            <mxPoint x="710" y="60" as="targetPoint" />
          </mxGeometry>
        </mxCell>
        <mxCell id="cQ4zJCqIh2k-MCwo7_nI-46" value="[2]" style="endArrow=classic;html=1;rounded=0;fontStyle=0" edge="1" parent="1">
          <mxGeometry width="50" height="50" relative="1" as="geometry">
            <mxPoint x="650" y="40" as="sourcePoint" />
            <mxPoint x="710" y="40" as="targetPoint" />
          </mxGeometry>
        </mxCell>
        <mxCell id="cQ4zJCqIh2k-MCwo7_nI-48" value="" style="endArrow=none;html=1;rounded=0;fontStyle=0" edge="1" parent="1">
          <mxGeometry width="50" height="50" relative="1" as="geometry">
            <mxPoint x="610" y="80" as="sourcePoint" />
            <mxPoint x="670" y="20" as="targetPoint" />
          </mxGeometry>
        </mxCell>
        <mxCell id="cQ4zJCqIh2k-MCwo7_nI-49" value="[3]" style="endArrow=classic;html=1;rounded=0;fontStyle=0" edge="1" parent="1">
          <mxGeometry width="50" height="50" relative="1" as="geometry">
            <mxPoint x="670" y="20" as="sourcePoint" />
            <mxPoint x="710" y="20" as="targetPoint" />
          </mxGeometry>
        </mxCell>
        <mxCell id="cQ4zJCqIh2k-MCwo7_nI-50" value="" style="endArrow=none;html=1;rounded=0;fontStyle=0" edge="1" parent="1">
          <mxGeometry width="50" height="50" relative="1" as="geometry">
            <mxPoint x="490" y="80" as="sourcePoint" />
            <mxPoint x="610" y="80" as="targetPoint" />
          </mxGeometry>
        </mxCell>
        <mxCell id="cQ4zJCqIh2k-MCwo7_nI-51" value="&lt;span&gt;digit_driver_module&lt;/span&gt;" style="rounded=0;whiteSpace=wrap;html=1;fillColor=none;fontStyle=0" vertex="1" parent="1">
          <mxGeometry x="370" y="40" width="120" height="50" as="geometry" />
        </mxCell>
        <mxCell id="cQ4zJCqIh2k-MCwo7_nI-53" value="reset_clean" style="endArrow=classic;html=1;rounded=0;labelPosition=center;verticalLabelPosition=top;align=center;verticalAlign=bottom;labelBackgroundColor=none;fontStyle=0" edge="1" parent="1">
          <mxGeometry x="-0.4" width="50" height="50" relative="1" as="geometry">
            <mxPoint x="270" y="80" as="sourcePoint" />
            <mxPoint x="370" y="80" as="targetPoint" />
            <mxPoint as="offset" />
          </mxGeometry>
        </mxCell>
        <mxCell id="cQ4zJCqIh2k-MCwo7_nI-54" value="&lt;div&gt;relative_addr&lt;/div&gt;&lt;div align=&quot;center&quot;&gt;[1:0]&lt;br&gt;&lt;/div&gt;" style="endArrow=classic;html=1;rounded=0;labelPosition=center;verticalLabelPosition=middle;align=center;verticalAlign=middle;labelBackgroundColor=none;fontStyle=0" edge="1" parent="1">
          <mxGeometry width="50" height="50" relative="1" as="geometry">
            <mxPoint x="280" y="230" as="sourcePoint" />
            <mxPoint x="370" y="230" as="targetPoint" />
          </mxGeometry>
        </mxCell>
        <mxCell id="cQ4zJCqIh2k-MCwo7_nI-55" value="&lt;div&gt;anodes&lt;/div&gt;&lt;div&gt;[3:0]&lt;br&gt;&lt;/div&gt;" style="endArrow=classic;html=1;rounded=0;labelPosition=center;verticalLabelPosition=middle;align=center;verticalAlign=middle;labelBackgroundColor=none;fontStyle=0" edge="1" parent="1">
          <mxGeometry width="50" height="50" relative="1" as="geometry">
            <mxPoint x="490" y="80" as="sourcePoint" />
            <mxPoint x="580" y="80" as="targetPoint" />
          </mxGeometry>
        </mxCell>
        <mxCell id="cQ4zJCqIh2k-MCwo7_nI-56" value="" style="endArrow=none;html=1;rounded=0;fontStyle=0" edge="1" parent="1">
          <mxGeometry width="50" height="50" relative="1" as="geometry">
            <mxPoint x="350" y="180" as="sourcePoint" />
            <mxPoint x="350" y="50" as="targetPoint" />
          </mxGeometry>
        </mxCell>
        <mxCell id="cQ4zJCqIh2k-MCwo7_nI-57" value="" style="endArrow=classic;html=1;rounded=0;fontStyle=0" edge="1" parent="1">
          <mxGeometry width="50" height="50" relative="1" as="geometry">
            <mxPoint x="350" y="50" as="sourcePoint" />
            <mxPoint x="370" y="50" as="targetPoint" />
          </mxGeometry>
        </mxCell>
        <mxCell id="cQ4zJCqIh2k-MCwo7_nI-58" value="&lt;span&gt;clean_button_module&lt;/span&gt;" style="rounded=0;whiteSpace=wrap;html=1;fontColor=default;fillColor=none;fontStyle=0" vertex="1" parent="1">
          <mxGeometry x="140" y="50" width="130" height="50" as="geometry" />
        </mxCell>
        <mxCell id="cQ4zJCqIh2k-MCwo7_nI-62" value="" style="endArrow=none;html=1;rounded=0;fontStyle=0" edge="1" parent="1">
          <mxGeometry width="50" height="50" relative="1" as="geometry">
            <mxPoint x="220" y="180" as="sourcePoint" />
            <mxPoint x="220" y="120" as="targetPoint" />
          </mxGeometry>
        </mxCell>
        <mxCell id="cQ4zJCqIh2k-MCwo7_nI-63" value="" style="endArrow=none;html=1;rounded=0;fontStyle=0" edge="1" parent="1">
          <mxGeometry width="50" height="50" relative="1" as="geometry">
            <mxPoint x="120" y="120" as="sourcePoint" />
            <mxPoint x="220" y="120" as="targetPoint" />
          </mxGeometry>
        </mxCell>
        <mxCell id="cQ4zJCqIh2k-MCwo7_nI-64" value="" style="endArrow=none;html=1;rounded=0;fontStyle=0" edge="1" parent="1">
          <mxGeometry width="50" height="50" relative="1" as="geometry">
            <mxPoint x="120" y="120" as="sourcePoint" />
            <mxPoint x="120" y="60" as="targetPoint" />
          </mxGeometry>
        </mxCell>
        <mxCell id="cQ4zJCqIh2k-MCwo7_nI-65" value="" style="endArrow=classic;html=1;rounded=0;fontStyle=0" edge="1" parent="1">
          <mxGeometry width="50" height="50" relative="1" as="geometry">
            <mxPoint x="120" y="60" as="sourcePoint" />
            <mxPoint x="140" y="60" as="targetPoint" />
          </mxGeometry>
        </mxCell>
        <mxCell id="cQ4zJCqIh2k-MCwo7_nI-68" value="" style="endArrow=classic;html=1;rounded=0;fontStyle=0" edge="1" parent="1">
          <mxGeometry width="50" height="50" relative="1" as="geometry">
            <mxPoint x="50" y="90" as="sourcePoint" />
            <mxPoint x="140" y="90" as="targetPoint" />
          </mxGeometry>
        </mxCell>
        <mxCell id="cQ4zJCqIh2k-MCwo7_nI-69" value="&lt;span&gt;LEDdecoder&lt;/span&gt;" style="rounded=0;whiteSpace=wrap;html=1;fillColor=none;fontStyle=0" vertex="1" parent="1">
          <mxGeometry x="370" y="220" width="90" height="20" as="geometry" />
        </mxCell>
        <mxCell id="cQ4zJCqIh2k-MCwo7_nI-71" value="&lt;span&gt;LED&lt;br&gt;[6:0]&lt;/span&gt;" style="endArrow=classic;html=1;labelBackgroundColor=none;fontStyle=0" edge="1" parent="1">
          <mxGeometry width="50" height="50" relative="1" as="geometry">
            <mxPoint x="460" y="229.65999999999997" as="sourcePoint" />
            <mxPoint x="550" y="230" as="targetPoint" />
          </mxGeometry>
        </mxCell>
        <mxCell id="cQ4zJCqIh2k-MCwo7_nI-72" value="" style="endArrow=none;html=1;rounded=0;fontStyle=0" edge="1" parent="1">
          <mxGeometry width="50" height="50" relative="1" as="geometry">
            <mxPoint x="670" y="280" as="sourcePoint" />
            <mxPoint x="670" y="260" as="targetPoint" />
          </mxGeometry>
        </mxCell>
        <mxCell id="cQ4zJCqIh2k-MCwo7_nI-73" value="" style="endArrow=none;html=1;rounded=0;fontStyle=0" edge="1" parent="1">
          <mxGeometry width="50" height="50" relative="1" as="geometry">
            <mxPoint x="650" y="280" as="sourcePoint" />
            <mxPoint x="690" y="280" as="targetPoint" />
          </mxGeometry>
        </mxCell>
        <mxCell id="cQ4zJCqIh2k-MCwo7_nI-74" value="" style="endArrow=none;html=1;rounded=0;fontStyle=0" edge="1" parent="1">
          <mxGeometry width="50" height="50" relative="1" as="geometry">
            <mxPoint x="660" y="290" as="sourcePoint" />
            <mxPoint x="680" y="290" as="targetPoint" />
          </mxGeometry>
        </mxCell>
        <mxCell id="cQ4zJCqIh2k-MCwo7_nI-75" value="" style="endArrow=classic;html=1;rounded=0;fontStyle=0" edge="1" parent="1">
          <mxGeometry width="50" height="50" relative="1" as="geometry">
            <mxPoint x="670" y="260" as="sourcePoint" />
            <mxPoint x="710" y="260" as="targetPoint" />
          </mxGeometry>
        </mxCell>
        <mxCell id="cQ4zJCqIh2k-MCwo7_nI-76" value="[6]" style="endArrow=classic;html=1;rounded=0;fontStyle=0" edge="1" parent="1">
          <mxGeometry width="50" height="50" relative="1" as="geometry">
            <mxPoint x="670" y="110" as="sourcePoint" />
            <mxPoint x="710" y="110" as="targetPoint" />
          </mxGeometry>
        </mxCell>
        <mxCell id="cQ4zJCqIh2k-MCwo7_nI-77" value="" style="endArrow=none;html=1;rounded=0;fontStyle=0" edge="1" parent="1">
          <mxGeometry width="50" height="50" relative="1" as="geometry">
            <mxPoint x="550" y="230" as="sourcePoint" />
            <mxPoint x="670" y="110" as="targetPoint" />
          </mxGeometry>
        </mxCell>
        <mxCell id="cQ4zJCqIh2k-MCwo7_nI-78" value="[0]" style="endArrow=classic;html=1;rounded=0;fontStyle=0" edge="1" parent="1">
          <mxGeometry width="50" height="50" relative="1" as="geometry">
            <mxPoint x="550" y="229.66000000000003" as="sourcePoint" />
            <mxPoint x="710" y="230" as="targetPoint" />
          </mxGeometry>
        </mxCell>
        <mxCell id="cQ4zJCqIh2k-MCwo7_nI-79" value="[1]" style="endArrow=classic;html=1;rounded=0;fontStyle=0" edge="1" parent="1">
          <mxGeometry width="50" height="50" relative="1" as="geometry">
            <mxPoint x="570" y="210" as="sourcePoint" />
            <mxPoint x="710" y="210.34" as="targetPoint" />
          </mxGeometry>
        </mxCell>
        <mxCell id="cQ4zJCqIh2k-MCwo7_nI-80" value="[2]" style="endArrow=classic;html=1;rounded=0;fontStyle=0" edge="1" parent="1">
          <mxGeometry width="50" height="50" relative="1" as="geometry">
            <mxPoint x="590" y="190" as="sourcePoint" />
            <mxPoint x="710" y="190.34" as="targetPoint" />
          </mxGeometry>
        </mxCell>
        <mxCell id="cQ4zJCqIh2k-MCwo7_nI-81" value="[3]" style="endArrow=classic;html=1;rounded=0;fontStyle=0" edge="1" parent="1">
          <mxGeometry width="50" height="50" relative="1" as="geometry">
            <mxPoint x="610" y="170" as="sourcePoint" />
            <mxPoint x="710" y="170.34" as="targetPoint" />
          </mxGeometry>
        </mxCell>
        <mxCell id="cQ4zJCqIh2k-MCwo7_nI-82" value="[4]" style="endArrow=classic;html=1;rounded=0;fontStyle=0" edge="1" parent="1">
          <mxGeometry width="50" height="50" relative="1" as="geometry">
            <mxPoint x="630" y="150" as="sourcePoint" />
            <mxPoint x="710" y="150.34" as="targetPoint" />
          </mxGeometry>
        </mxCell>
        <mxCell id="cQ4zJCqIh2k-MCwo7_nI-83" value="[5]" style="endArrow=classic;html=1;rounded=0;fontStyle=0" edge="1" parent="1">
          <mxGeometry width="50" height="50" relative="1" as="geometry">
            <mxPoint x="650" y="130" as="sourcePoint" />
            <mxPoint x="710" y="130.34" as="targetPoint" />
          </mxGeometry>
        </mxCell>
        <mxCell id="cQ4zJCqIh2k-MCwo7_nI-84" value="" style="endArrow=none;html=1;rounded=0;fontStyle=0" edge="1" parent="1">
          <mxGeometry width="50" height="50" relative="1" as="geometry">
            <mxPoint x="280" y="230" as="sourcePoint" />
            <mxPoint x="280" y="190" as="targetPoint" />
          </mxGeometry>
        </mxCell>
        <mxCell id="cQ4zJCqIh2k-MCwo7_nI-85" value="" style="endArrow=none;html=1;rounded=0;fontStyle=0" edge="1" parent="1">
          <mxGeometry width="50" height="50" relative="1" as="geometry">
            <mxPoint x="280" y="190" as="sourcePoint" />
            <mxPoint x="510" y="190" as="targetPoint" />
          </mxGeometry>
        </mxCell>
        <mxCell id="cQ4zJCqIh2k-MCwo7_nI-86" value="" style="endArrow=none;html=1;rounded=0;fontStyle=0" edge="1" parent="1">
          <mxGeometry width="50" height="50" relative="1" as="geometry">
            <mxPoint x="490" y="50" as="sourcePoint" />
            <mxPoint x="510" y="50" as="targetPoint" />
          </mxGeometry>
        </mxCell>
        <mxCell id="cQ4zJCqIh2k-MCwo7_nI-87" value="" style="endArrow=none;html=1;rounded=0;fontStyle=0" edge="1" parent="1">
          <mxGeometry width="50" height="50" relative="1" as="geometry">
            <mxPoint x="510" y="190" as="sourcePoint" />
            <mxPoint x="510" y="50" as="targetPoint" />
          </mxGeometry>
        </mxCell>
      </root>
    </mxGraphModel>
  </diagram>
</mxfile>
